<svg height="44" viewBox="0 0 44 44" width="44" xmlns="http://www.w3.org/2000/svg"><path d="m44 36.8671875v-4.9414063c0-.6169882-.5001992-1.1171874-1.1171875-1.1171874s-1.1171875.5001992-1.1171875 1.1171874v4.9414063c0 2.7009727-2.1974648 4.8984375-4.8984375 4.8984375h-4.9414063c-.6169882 0-1.1171874.5001992-1.1171874 1.1171875s.5001992 1.1171875 1.1171874 1.1171875h4.9414063c3.9330156 0 7.1328125-3.1997969 7.1328125-7.1328125m-30.8085938 6.015625c0-.6169883-.5001992-1.1171875-1.1171874-1.1171875h-4.9414063c-2.70097266 0-4.8984375-2.1974648-4.8984375-4.8984375v-4.9414063c0-.6169882-.50019922-1.1171874-1.1171875-1.1171874s-1.1171875.5001992-1.1171875 1.1171874v4.9414063c0 3.9330156 3.19979687 7.1328125 7.1328125 7.1328125h4.9414063c.6169882 0 1.1171874-.5001992 1.1171874-1.1171875m-10.9570312-30.8085937v-4.9414063c0-2.70101563 2.19746484-4.8984375 4.8984375-4.8984375h4.9414063c.6169882 0 1.1171874-.50019922 1.1171874-1.1171875s-.5001992-1.1171875-1.1171874-1.1171875h-4.9414063c-3.93301563 0-7.1328125 3.19975391-7.1328125 7.1328125v4.9414063c0 .6169882.50019922 1.1171874 1.1171875 1.1171874s1.1171875-.5001992 1.1171875-1.1171874m41.765625 0v-4.9414063c0-3.93305859-3.1997969-7.1328125-7.1328125-7.1328125h-4.9414063c-.6169882 0-1.1171874.50019922-1.1171874 1.1171875s.5001992 1.1171875 1.1171874 1.1171875h4.9414063c2.7009727 0 4.8984375 2.19742187 4.8984375 4.8984375v4.9414063c0 .6169882.5001992 1.1171874 1.1171875 1.1171874s1.1171875-.5001992 1.1171875-1.1171874m-14.2901602 20.4460781c.4706797-.4347578.4997696-1.16875.0650118-1.6394297-.4348008-.4706797-1.16875-.4997695-1.6394297-.0650547-1.674793 1.5470469-3.8537383 2.3990313-6.1354219 2.3990313s-4.4606289-.8519844-6.1354219-2.3990313c-.4707656-.4347148-1.2046289-.405582-1.6394297.0650547-.4347578.4706797-.4056679 1.2046719.0650118 1.6394297 2.1048242 1.944164 4.8428359 3.0148593 7.7098398 3.0148593s5.6050156-1.0706953 7.7098398-3.0148593m-5.3895273-7.6843594v-8.25c0-.64075-.5194062-1.1601563-1.1601563-1.1601563-.64075 0-1.1601562.5194063-1.1601562 1.1601563v8.25c0 .3553945-.2891367.6445313-.6445312.6445313h-.9453126c-.64075 0-1.1601562.5194062-1.1601562 1.1601562s.5194062 1.1601562 1.1601562 1.1601562h.9453126c1.634832 0 2.9648437-1.3300117 2.9648437-2.9648437m7.9921875-5.0058594v-3.3085937c0-.6051289-.4905742-1.0957032-1.0957031-1.0957032s-1.0957031.4905743-1.0957031 1.0957032v3.3085937c0 .6051289.4905742 1.0957031 1.0957031 1.0957031s1.0957031-.4905742 1.0957031-1.0957031m-19.2714844 1.0957031c-.6051289 0-1.0957031-.4905742-1.0957031-1.0957031v-3.3085937c0-.6051289.4905742-1.0957032 1.0957031-1.0957032s1.0957032.4905743 1.0957032 1.0957032v3.3085937c0 .6051289-.4905743 1.0957031-1.0957032 1.0957031" fill="#1866a3" fill-rule="evenodd"/></svg>